<?xml version="1.0" encoding="utf-8" standalone="no"?>
<!DOCTYPE svg PUBLIC "-//W3C//DTD SVG 1.1//EN"
  "http://www.w3.org/Graphics/SVG/1.1/DTD/svg11.dtd">
<svg xmlns:xlink="http://www.w3.org/1999/xlink" width="257.229761pt" height="190.407785pt" viewBox="0 0 257.229761 190.407785" xmlns="http://www.w3.org/2000/svg" version="1.1">
 <metadata>
  <rdf:RDF xmlns:dc="http://purl.org/dc/elements/1.1/" xmlns:cc="http://creativecommons.org/ns#" xmlns:rdf="http://www.w3.org/1999/02/22-rdf-syntax-ns#">
   <cc:Work>
    <dc:type rdf:resource="http://purl.org/dc/dcmitype/StillImage"/>
    <dc:date>2025-04-21T18:42:19.466023</dc:date>
    <dc:format>image/svg+xml</dc:format>
    <dc:creator>
     <cc:Agent>
      <dc:title>Matplotlib v3.10.1, https://matplotlib.org/</dc:title>
     </cc:Agent>
    </dc:creator>
   </cc:Work>
  </rdf:RDF>
 </metadata>
 <defs>
  <style type="text/css">*{stroke-linejoin: round; stroke-linecap: butt}</style>
 </defs>
 <g id="figure_1">
  <g id="patch_1">
   <path d="M -0 190.407785 
L 257.229761 190.407785 
L 257.229761 0 
L -0 0 
z
" style="fill: #ffffff"/>
  </g>
  <g id="axes_1">
   <g id="patch_2">
    <path d="M 54.729761 152.73 
L 250.029761 152.73 
L 250.029761 7.2 
L 54.729761 7.2 
z
" style="fill: #ffffff"/>
   </g>
   <g id="matplotlib.axis_1">
    <g id="xtick_1">
     <g id="line2d_1">
      <path d="M 64.833189 152.73 
L 64.833189 7.2 
" clip-path="url(#pb5b08607af)" style="fill: none; stroke-dasharray: 0.8,1.32; stroke-dashoffset: 0; stroke: #eeeeee; stroke-width: 0.8"/>
     </g>
     <g id="line2d_2">
      <defs>
       <path id="m5051cd153f" d="M 0 0 
L 0 3.5 
" style="stroke: #000000; stroke-width: 0.8"/>
      </defs>
      <g>
       <use xlink:href="#m5051cd153f" x="64.833189" y="152.73" style="stroke: #000000; stroke-width: 0.8"/>
      </g>
     </g>
     <g id="text_1">
      <!-- $\mathdefault{−0.002}$ -->
      <g transform="translate(49.612442 166.648498) scale(0.1 -0.1)">
       <defs>
        <path id="CMSY10-0" d="M 4218 1472 
C 4326 1472 4442 1472 4442 1600 
C 4442 1728 4326 1728 4218 1728 
L 755 1728 
C 646 1728 531 1728 531 1600 
C 531 1472 646 1472 755 1472 
L 4218 1472 
z
" transform="scale(0.015625)"/>
        <path id="CMR17-30" d="M 2688 2025 
C 2688 2416 2682 3080 2413 3591 
C 2176 4039 1798 4198 1466 4198 
C 1158 4198 768 4058 525 3597 
C 269 3118 243 2524 243 2025 
C 243 1661 250 1106 448 619 
C 723 -39 1216 -128 1466 -128 
C 1760 -128 2208 -7 2470 600 
C 2662 1042 2688 1559 2688 2025 
z
M 1466 -26 
C 1056 -26 813 325 723 812 
C 653 1188 653 1738 653 2096 
C 653 2588 653 2997 736 3387 
C 858 3929 1216 4096 1466 4096 
C 1728 4096 2067 3923 2189 3400 
C 2272 3036 2278 2607 2278 2096 
C 2278 1680 2278 1169 2202 792 
C 2067 95 1690 -26 1466 -26 
z
" transform="scale(0.015625)"/>
        <path id="CMMI12-3a" d="M 1178 307 
C 1178 492 1024 619 870 619 
C 685 619 557 466 557 313 
C 557 128 710 0 864 0 
C 1050 0 1178 153 1178 307 
z
" transform="scale(0.015625)"/>
        <path id="CMR17-32" d="M 2669 989 
L 2554 989 
C 2490 536 2438 459 2413 420 
C 2381 369 1920 369 1830 369 
L 602 369 
C 832 619 1280 1072 1824 1597 
C 2214 1967 2669 2402 2669 3035 
C 2669 3790 2067 4224 1395 4224 
C 691 4224 262 3604 262 3030 
C 262 2780 448 2748 525 2748 
C 589 2748 781 2787 781 3010 
C 781 3207 614 3264 525 3264 
C 486 3264 448 3258 422 3245 
C 544 3790 915 4058 1306 4058 
C 1862 4058 2227 3617 2227 3035 
C 2227 2479 1901 2000 1536 1584 
L 262 146 
L 262 0 
L 2515 0 
L 2669 989 
z
" transform="scale(0.015625)"/>
       </defs>
       <use xlink:href="#CMSY10-0" transform="scale(0.996264)"/>
       <use xlink:href="#CMR17-30" transform="translate(77.487468 0) scale(0.996264)"/>
       <use xlink:href="#CMMI12-3a" transform="translate(123.177945 0) scale(0.996264)"/>
       <use xlink:href="#CMR17-30" transform="translate(150.275122 0) scale(0.996264)"/>
       <use xlink:href="#CMR17-30" transform="translate(195.965599 0) scale(0.996264)"/>
       <use xlink:href="#CMR17-32" transform="translate(241.656076 0) scale(0.996264)"/>
      </g>
     </g>
    </g>
    <g id="xtick_2">
     <g id="line2d_3">
      <path d="M 115.105567 152.73 
L 115.105567 7.2 
" clip-path="url(#pb5b08607af)" style="fill: none; stroke-dasharray: 0.8,1.32; stroke-dashoffset: 0; stroke: #eeeeee; stroke-width: 0.8"/>
     </g>
     <g id="line2d_4">
      <g>
       <use xlink:href="#m5051cd153f" x="115.105567" y="152.73" style="stroke: #000000; stroke-width: 0.8"/>
      </g>
     </g>
     <g id="text_2">
      <!-- $\mathdefault{−0.001}$ -->
      <g transform="translate(99.88482 166.648498) scale(0.1 -0.1)">
       <defs>
        <path id="CMR17-31" d="M 1702 4058 
C 1702 4192 1696 4192 1606 4192 
C 1357 3916 979 3827 621 3827 
C 602 3827 570 3827 563 3808 
C 557 3795 557 3782 557 3648 
C 755 3648 1088 3686 1344 3839 
L 1344 461 
C 1344 236 1331 160 781 160 
L 589 160 
L 589 0 
C 896 0 1216 0 1523 0 
C 1830 0 2150 0 2458 0 
L 2458 160 
L 2266 160 
C 1715 160 1702 230 1702 458 
L 1702 4058 
z
" transform="scale(0.015625)"/>
       </defs>
       <use xlink:href="#CMSY10-0" transform="scale(0.996264)"/>
       <use xlink:href="#CMR17-30" transform="translate(77.487468 0) scale(0.996264)"/>
       <use xlink:href="#CMMI12-3a" transform="translate(123.177945 0) scale(0.996264)"/>
       <use xlink:href="#CMR17-30" transform="translate(150.275122 0) scale(0.996264)"/>
       <use xlink:href="#CMR17-30" transform="translate(195.965599 0) scale(0.996264)"/>
       <use xlink:href="#CMR17-31" transform="translate(241.656076 0) scale(0.996264)"/>
      </g>
     </g>
    </g>
    <g id="xtick_3">
     <g id="line2d_5">
      <path d="M 165.377945 152.73 
L 165.377945 7.2 
" clip-path="url(#pb5b08607af)" style="fill: none; stroke-dasharray: 0.8,1.32; stroke-dashoffset: 0; stroke: #eeeeee; stroke-width: 0.8"/>
     </g>
     <g id="line2d_6">
      <g>
       <use xlink:href="#m5051cd153f" x="165.377945" y="152.73" style="stroke: #000000; stroke-width: 0.8"/>
      </g>
     </g>
     <g id="text_3">
      <!-- $\mathdefault{0.000}$ -->
      <g transform="translate(154.03157 166.648498) scale(0.1 -0.1)">
       <use xlink:href="#CMR17-30" transform="scale(0.996264)"/>
       <use xlink:href="#CMMI12-3a" transform="translate(45.690477 0) scale(0.996264)"/>
       <use xlink:href="#CMR17-30" transform="translate(72.787654 0) scale(0.996264)"/>
       <use xlink:href="#CMR17-30" transform="translate(118.478131 0) scale(0.996264)"/>
       <use xlink:href="#CMR17-30" transform="translate(164.168608 0) scale(0.996264)"/>
      </g>
     </g>
    </g>
    <g id="xtick_4">
     <g id="line2d_7">
      <path d="M 215.650323 152.73 
L 215.650323 7.2 
" clip-path="url(#pb5b08607af)" style="fill: none; stroke-dasharray: 0.8,1.32; stroke-dashoffset: 0; stroke: #eeeeee; stroke-width: 0.8"/>
     </g>
     <g id="line2d_8">
      <g>
       <use xlink:href="#m5051cd153f" x="215.650323" y="152.73" style="stroke: #000000; stroke-width: 0.8"/>
      </g>
     </g>
     <g id="text_4">
      <!-- $\mathdefault{0.001}$ -->
      <g transform="translate(204.303949 166.648498) scale(0.1 -0.1)">
       <use xlink:href="#CMR17-30" transform="scale(0.996264)"/>
       <use xlink:href="#CMMI12-3a" transform="translate(45.690477 0) scale(0.996264)"/>
       <use xlink:href="#CMR17-30" transform="translate(72.787654 0) scale(0.996264)"/>
       <use xlink:href="#CMR17-30" transform="translate(118.478131 0) scale(0.996264)"/>
       <use xlink:href="#CMR17-31" transform="translate(164.168608 0) scale(0.996264)"/>
      </g>
     </g>
    </g>
    <g id="text_5">
     <!-- Curvature, $\mathrm{in}^{-1}$ -->
     <g transform="translate(118.057002 181.270607) scale(0.1 -0.1)">
      <defs>
       <path id="CMR17-43" d="M 3974 4289 
C 3974 4403 3968 4410 3930 4410 
C 3904 4410 3898 4403 3853 4327 
L 3571 3792 
C 3258 4187 2874 4416 2381 4416 
C 1286 4416 294 3456 294 2148 
C 294 826 1286 -128 2387 -128 
C 3366 -128 3974 730 3974 1461 
C 3974 1524 3974 1550 3917 1550 
C 3866 1550 3866 1531 3859 1474 
C 3808 585 3168 38 2477 38 
C 1824 38 781 495 781 2147 
C 781 3805 1843 4250 2464 4250 
C 3187 4250 3712 3628 3834 2745 
C 3846 2668 3846 2655 3904 2655 
C 3974 2655 3974 2668 3974 2783 
L 3974 4289 
z
" transform="scale(0.015625)"/>
       <path id="CMR17-75" d="M 1882 2693 
L 1882 2528 
C 2259 2528 2317 2489 2317 2186 
L 2317 1032 
C 2317 500 2029 38 1555 38 
C 1030 38 986 348 986 678 
L 986 2763 
L 211 2693 
L 211 2528 
C 467 2528 640 2528 646 2274 
L 646 1058 
C 646 633 646 361 813 183 
C 896 101 1056 -64 1517 -64 
C 2061 -64 2272 377 2323 506 
L 2330 506 
L 2330 -63 
L 3091 -63 
L 3091 128 
C 2714 128 2656 166 2656 473 
L 2656 2763 
L 1882 2693 
z
" transform="scale(0.015625)"/>
       <path id="CMR17-72" d="M 960 1497 
C 960 2112 1222 2688 1702 2688 
C 1747 2688 1792 2682 1837 2662 
C 1837 2662 1696 2617 1696 2452 
C 1696 2298 1818 2234 1914 2234 
C 1990 2234 2131 2279 2131 2458 
C 2131 2663 1926 2790 1709 2790 
C 1222 2790 1011 2317 947 2093 
L 941 2093 
L 941 2790 
L 198 2720 
L 198 2554 
C 576 2554 634 2515 634 2208 
L 634 428 
C 634 184 608 153 198 153 
L 198 -13 
C 352 0 646 0 813 0 
C 998 0 1325 0 1498 -13 
L 1498 153 
C 1037 153 960 153 960 440 
L 960 1497 
z
" transform="scale(0.015625)"/>
       <path id="CMR17-76" d="M 2502 2163 
C 2560 2304 2662 2560 3034 2560 
L 3034 2726 
C 2912 2726 2752 2726 2630 2726 
C 2496 2726 2285 2726 2157 2732 
L 2157 2566 
C 2317 2553 2406 2477 2406 2311 
C 2406 2253 2406 2240 2368 2151 
L 1664 377 
L 902 2286 
C 864 2369 864 2381 864 2407 
C 864 2560 1075 2560 1171 2560 
L 1171 2732 
C 1018 2726 736 2726 576 2726 
C 403 2726 205 2726 64 2732 
L 64 2560 
C 307 2560 442 2560 518 2362 
L 1446 44 
C 1485 -51 1491 -64 1549 -64 
C 1606 -64 1613 -51 1651 44 
L 2502 2163 
z
" transform="scale(0.015625)"/>
       <path id="CMR17-61" d="M 2304 1653 
C 2304 2072 2304 2294 2035 2543 
C 1798 2752 1523 2816 1306 2816 
C 800 2816 435 2407 435 1971 
C 435 1728 627 1728 666 1728 
C 749 1728 896 1778 896 1954 
C 896 2112 774 2181 666 2181 
C 640 2181 608 2174 589 2168 
C 723 2592 1069 2714 1293 2714 
C 1613 2714 1965 2429 1965 1885 
L 1965 1600 
C 1587 1600 1133 1549 774 1357 
C 371 1133 256 813 256 570 
C 256 77 832 -64 1171 -64 
C 1523 -64 1850 139 1990 511 
C 2003 233 2182 -18 2464 -18 
C 2598 -18 2938 70 2938 567 
L 2938 920 
L 2822 920 
L 2822 562 
C 2822 178 2650 128 2566 128 
C 2304 128 2304 458 2304 738 
L 2304 1653 
z
M 1965 870 
C 1965 317 1568 38 1216 38 
C 896 38 646 275 646 570 
C 646 761 730 1100 1101 1305 
C 1408 1478 1760 1504 1965 1504 
L 1965 870 
z
" transform="scale(0.015625)"/>
       <path id="CMR17-74" d="M 966 2560 
L 1862 2560 
L 1862 2725 
L 966 2725 
L 966 3904 
L 851 3904 
C 838 3245 614 2668 70 2668 
L 70 2560 
L 627 2560 
L 627 771 
C 627 650 627 -64 1370 -64 
C 1747 -64 1965 306 1965 777 
L 1965 1140 
L 1850 1140 
L 1850 783 
C 1850 344 1677 51 1408 51 
C 1222 51 966 178 966 758 
L 966 2560 
z
" transform="scale(0.015625)"/>
       <path id="CMR17-65" d="M 2438 1472 
C 2464 1498 2464 1511 2464 1576 
C 2464 2238 2118 2816 1389 2816 
C 710 2816 173 2169 173 1383 
C 173 551 781 -64 1459 -64 
C 2176 -64 2458 607 2458 740 
C 2458 784 2419 784 2406 784 
C 2362 784 2355 771 2330 696 
C 2189 265 1837 51 1504 51 
C 1229 51 954 203 781 480 
C 582 803 582 1176 582 1472 
L 2438 1472 
z
M 589 1568 
C 634 2505 1126 2714 1382 2714 
C 1818 2714 2112 2297 2118 1568 
L 589 1568 
z
" transform="scale(0.015625)"/>
       <path id="CMR17-2c" d="M 1011 102 
C 1024 45 1024 25 1024 -77 
C 1024 -463 896 -817 627 -1139 
C 595 -1170 595 -1183 595 -1197 
C 595 -1222 621 -1248 646 -1248 
C 685 -1248 1126 -799 1126 -87 
C 1126 124 1101 522 800 522 
C 659 522 538 427 538 261 
C 538 96 659 0 800 0 
C 877 0 960 32 1011 102 
z
" transform="scale(0.015625)"/>
       <path id="CMR17-69" d="M 992 3909 
C 992 4049 877 4170 730 4170 
C 589 4170 467 4056 467 3909 
C 467 3769 582 3648 730 3648 
C 870 3648 992 3763 992 3909 
z
M 243 2706 
L 243 2541 
C 602 2541 653 2502 653 2197 
L 653 427 
C 653 184 627 153 218 153 
L 218 -13 
C 371 0 646 0 806 0 
C 960 0 1222 0 1370 -13 
L 1370 153 
C 992 153 979 191 979 420 
L 979 2776 
L 243 2706 
z
" transform="scale(0.015625)"/>
       <path id="CMR17-6e" d="M 2656 1933 
C 2656 2259 2592 2790 1837 2790 
C 1331 2790 1069 2400 973 2144 
L 966 2144 
L 966 2790 
L 211 2720 
L 211 2554 
C 589 2554 646 2515 646 2208 
L 646 428 
C 646 184 621 153 211 153 
L 211 -13 
C 365 0 646 0 813 0 
C 979 0 1267 0 1421 -13 
L 1421 153 
C 1011 153 986 178 986 428 
L 986 1658 
C 986 2247 1344 2688 1792 2688 
C 2266 2688 2317 2266 2317 1958 
L 2317 428 
C 2317 184 2291 153 1882 153 
L 1882 -13 
C 2035 0 2317 0 2483 0 
C 2650 0 2938 0 3091 -13 
L 3091 153 
C 2682 153 2656 178 2656 428 
L 2656 1933 
z
" transform="scale(0.015625)"/>
      </defs>
      <use xlink:href="#CMR17-43" transform="scale(0.996264)"/>
      <use xlink:href="#CMR17-75" transform="translate(66.509881 0) scale(0.996264)"/>
      <use xlink:href="#CMR17-72" transform="translate(117.40525 0) scale(0.996264)"/>
      <use xlink:href="#CMR17-76" transform="translate(152.686018 0) scale(0.996264)"/>
      <use xlink:href="#CMR17-61" transform="translate(195.774117 0) scale(0.996264)"/>
      <use xlink:href="#CMR17-74" transform="translate(241.464594 0) scale(0.996264)"/>
      <use xlink:href="#CMR17-75" transform="translate(276.745362 0) scale(0.996264)"/>
      <use xlink:href="#CMR17-72" transform="translate(327.640732 0) scale(0.996264)"/>
      <use xlink:href="#CMR17-65" transform="translate(362.9215 0) scale(0.996264)"/>
      <use xlink:href="#CMR17-2c" transform="translate(403.40716 0) scale(0.996264)"/>
      <use xlink:href="#CMR17-69" transform="translate(458.354185 0) scale(0.996264)"/>
      <use xlink:href="#CMR17-6e" transform="translate(483.225244 0) scale(0.996264)"/>
      <use xlink:href="#CMSY10-0" transform="translate(534.120613 38.426442) scale(0.697382)"/>
      <use xlink:href="#CMR17-31" transform="translate(588.361607 38.426442) scale(0.697382)"/>
     </g>
    </g>
   </g>
   <g id="matplotlib.axis_2">
    <g id="ytick_1">
     <g id="line2d_9">
      <path d="M 54.729761 136.63586 
L 250.029761 136.63586 
" clip-path="url(#pb5b08607af)" style="fill: none; stroke-dasharray: 0.8,1.32; stroke-dashoffset: 0; stroke: #eeeeee; stroke-width: 0.8"/>
     </g>
     <g id="line2d_10">
      <defs>
       <path id="m41aae58830" d="M 0 0 
L -3.5 0 
" style="stroke: #000000; stroke-width: 0.8"/>
      </defs>
      <g>
       <use xlink:href="#m41aae58830" x="54.729761" y="136.63586" style="stroke: #000000; stroke-width: 0.8"/>
      </g>
     </g>
     <g id="text_6">
      <!-- $\mathdefault{−4000}$ -->
      <g transform="translate(20.055677 140.095109) scale(0.1 -0.1)">
       <defs>
        <path id="CMR17-34" d="M 2150 4122 
C 2150 4256 2144 4256 2029 4256 
L 128 1254 
L 128 1088 
L 1779 1088 
L 1779 457 
C 1779 224 1766 160 1318 160 
L 1197 160 
L 1197 0 
C 1402 0 1747 0 1965 0 
C 2182 0 2528 0 2733 0 
L 2733 160 
L 2611 160 
C 2163 160 2150 224 2150 457 
L 2150 1088 
L 2803 1088 
L 2803 1254 
L 2150 1254 
L 2150 4122 
z
M 1798 3703 
L 1798 1254 
L 256 1254 
L 1798 3703 
z
" transform="scale(0.015625)"/>
       </defs>
       <use xlink:href="#CMSY10-0" transform="scale(0.996264)"/>
       <use xlink:href="#CMR17-34" transform="translate(77.487468 0) scale(0.996264)"/>
       <use xlink:href="#CMR17-30" transform="translate(123.177945 0) scale(0.996264)"/>
       <use xlink:href="#CMR17-30" transform="translate(168.868422 0) scale(0.996264)"/>
       <use xlink:href="#CMR17-30" transform="translate(214.558899 0) scale(0.996264)"/>
      </g>
     </g>
    </g>
    <g id="ytick_2">
     <g id="line2d_11">
      <path d="M 54.729761 109.300979 
L 250.029761 109.300979 
" clip-path="url(#pb5b08607af)" style="fill: none; stroke-dasharray: 0.8,1.32; stroke-dashoffset: 0; stroke: #eeeeee; stroke-width: 0.8"/>
     </g>
     <g id="line2d_12">
      <g>
       <use xlink:href="#m41aae58830" x="54.729761" y="109.300979" style="stroke: #000000; stroke-width: 0.8"/>
      </g>
     </g>
     <g id="text_7">
      <!-- $\mathdefault{−2000}$ -->
      <g transform="translate(20.055677 112.760228) scale(0.1 -0.1)">
       <use xlink:href="#CMSY10-0" transform="scale(0.996264)"/>
       <use xlink:href="#CMR17-32" transform="translate(77.487468 0) scale(0.996264)"/>
       <use xlink:href="#CMR17-30" transform="translate(123.177945 0) scale(0.996264)"/>
       <use xlink:href="#CMR17-30" transform="translate(168.868422 0) scale(0.996264)"/>
       <use xlink:href="#CMR17-30" transform="translate(214.558899 0) scale(0.996264)"/>
      </g>
     </g>
    </g>
    <g id="ytick_3">
     <g id="line2d_13">
      <path d="M 54.729761 81.966097 
L 250.029761 81.966097 
" clip-path="url(#pb5b08607af)" style="fill: none; stroke-dasharray: 0.8,1.32; stroke-dashoffset: 0; stroke: #eeeeee; stroke-width: 0.8"/>
     </g>
     <g id="line2d_14">
      <g>
       <use xlink:href="#m41aae58830" x="54.729761" y="81.966097" style="stroke: #000000; stroke-width: 0.8"/>
      </g>
     </g>
     <g id="text_8">
      <!-- $\mathdefault{0}$ -->
      <g transform="translate(42.748426 85.425346) scale(0.1 -0.1)">
       <use xlink:href="#CMR17-30" transform="scale(0.996264)"/>
      </g>
     </g>
    </g>
    <g id="ytick_4">
     <g id="line2d_15">
      <path d="M 54.729761 54.631215 
L 250.029761 54.631215 
" clip-path="url(#pb5b08607af)" style="fill: none; stroke-dasharray: 0.8,1.32; stroke-dashoffset: 0; stroke: #eeeeee; stroke-width: 0.8"/>
     </g>
     <g id="line2d_16">
      <g>
       <use xlink:href="#m41aae58830" x="54.729761" y="54.631215" style="stroke: #000000; stroke-width: 0.8"/>
      </g>
     </g>
     <g id="text_9">
      <!-- $\mathdefault{2000}$ -->
      <g transform="translate(27.80442 58.090465) scale(0.1 -0.1)">
       <use xlink:href="#CMR17-32" transform="scale(0.996264)"/>
       <use xlink:href="#CMR17-30" transform="translate(45.690477 0) scale(0.996264)"/>
       <use xlink:href="#CMR17-30" transform="translate(91.380954 0) scale(0.996264)"/>
       <use xlink:href="#CMR17-30" transform="translate(137.071431 0) scale(0.996264)"/>
      </g>
     </g>
    </g>
    <g id="ytick_5">
     <g id="line2d_17">
      <path d="M 54.729761 27.296334 
L 250.029761 27.296334 
" clip-path="url(#pb5b08607af)" style="fill: none; stroke-dasharray: 0.8,1.32; stroke-dashoffset: 0; stroke: #eeeeee; stroke-width: 0.8"/>
     </g>
     <g id="line2d_18">
      <g>
       <use xlink:href="#m41aae58830" x="54.729761" y="27.296334" style="stroke: #000000; stroke-width: 0.8"/>
      </g>
     </g>
     <g id="text_10">
      <!-- $\mathdefault{4000}$ -->
      <g transform="translate(27.80442 30.755583) scale(0.1 -0.1)">
       <use xlink:href="#CMR17-34" transform="scale(0.996264)"/>
       <use xlink:href="#CMR17-30" transform="translate(45.690477 0) scale(0.996264)"/>
       <use xlink:href="#CMR17-30" transform="translate(91.380954 0) scale(0.996264)"/>
       <use xlink:href="#CMR17-30" transform="translate(137.071431 0) scale(0.996264)"/>
      </g>
     </g>
    </g>
    <g id="text_11">
     <!-- Moment, $\mathrm{in}-\mathrm{kip}$ -->
     <g transform="translate(14.118498 118.016787) rotate(-90) scale(0.1 -0.1)">
      <defs>
       <path id="CMR17-4d" d="M 1338 4224 
C 1299 4320 1293 4320 1158 4320 
L 339 4320 
L 339 4160 
C 781 4160 851 4160 851 3875 
L 851 610 
C 851 451 851 153 339 153 
L 339 -13 
C 486 0 755 0 915 0 
C 1075 0 1344 0 1491 -13 
L 1491 153 
C 979 153 979 451 979 610 
L 979 4135 
L 986 4135 
L 2490 89 
C 2515 25 2528 -13 2579 -13 
C 2630 -13 2643 25 2669 89 
L 4186 4166 
L 4192 4166 
L 4192 438 
C 4192 153 4122 153 3680 153 
L 3680 -13 
C 3853 0 4198 0 4384 0 
C 4570 0 4922 0 5094 -13 
L 5094 153 
C 4653 153 4582 153 4582 438 
L 4582 3875 
C 4582 4160 4653 4160 5094 4160 
L 5094 4320 
L 4282 4320 
C 4147 4320 4141 4314 4102 4218 
L 2720 502 
L 1338 4224 
z
" transform="scale(0.015625)"/>
       <path id="CMR17-6f" d="M 2758 1356 
C 2758 2176 2163 2816 1466 2816 
C 768 2816 173 2176 173 1356 
C 173 551 768 -64 1466 -64 
C 2163 -64 2758 551 2758 1356 
z
M 1466 51 
C 1165 51 909 230 762 480 
C 602 767 582 1126 582 1408 
C 582 1677 595 2010 762 2298 
C 890 2509 1139 2714 1466 2714 
C 1754 2714 1997 2554 2150 2330 
C 2349 2029 2349 1607 2349 1408 
C 2349 1158 2336 775 2163 467 
C 1984 173 1709 51 1466 51 
z
" transform="scale(0.015625)"/>
       <path id="CMR17-6d" d="M 4326 1933 
C 4326 2252 4269 2790 3507 2790 
C 3072 2790 2771 2496 2656 2151 
L 2650 2151 
C 2573 2676 2195 2790 1837 2790 
C 1331 2790 1069 2400 973 2144 
L 966 2144 
L 966 2790 
L 211 2720 
L 211 2554 
C 589 2554 646 2515 646 2208 
L 646 428 
C 646 184 621 153 211 153 
L 211 -13 
C 365 0 646 0 813 0 
C 979 0 1267 0 1421 -13 
L 1421 153 
C 1011 153 986 178 986 428 
L 986 1658 
C 986 2247 1344 2688 1792 2688 
C 2266 2688 2317 2266 2317 1958 
L 2317 428 
C 2317 184 2291 153 1882 153 
L 1882 -13 
C 2035 0 2317 0 2483 0 
C 2650 0 2938 0 3091 -13 
L 3091 153 
C 2682 153 2656 178 2656 428 
L 2656 1658 
C 2656 2247 3014 2688 3462 2688 
C 3936 2688 3987 2266 3987 1958 
L 3987 428 
C 3987 184 3962 153 3552 153 
L 3552 -13 
C 3706 0 3987 0 4154 0 
C 4320 0 4608 0 4762 -13 
L 4762 153 
C 4352 153 4326 178 4326 428 
L 4326 1933 
z
" transform="scale(0.015625)"/>
       <path id="CMR17-6b" d="M 1670 1673 
C 1664 1686 1632 1724 1632 1743 
C 1632 1756 2086 2171 2144 2222 
C 2509 2528 2739 2560 2906 2560 
L 2906 2733 
C 2867 2733 2854 2733 2848 2720 
L 2534 2720 
C 2355 2720 2080 2720 1907 2733 
L 1907 2566 
C 1997 2559 2061 2508 2061 2419 
C 2061 2291 1933 2170 1926 2170 
L 960 1289 
L 960 4396 
L 198 4326 
L 198 4160 
C 576 4160 634 4122 634 3817 
L 634 426 
C 634 184 608 153 198 153 
L 198 -13 
C 352 0 634 0 794 0 
C 954 0 1235 0 1389 -13 
L 1389 153 
C 979 153 954 178 954 428 
L 954 1130 
L 1395 1532 
L 2042 574 
C 2118 459 2182 369 2182 286 
C 2182 172 2067 153 1990 153 
L 1990 -13 
C 2144 0 2419 0 2579 0 
C 2694 0 2931 0 3040 0 
L 3040 153 
C 2739 153 2669 210 2477 491 
L 1670 1673 
z
" transform="scale(0.015625)"/>
       <path id="CMR17-70" d="M 1408 -1063 
C 998 -1063 973 -1037 973 -789 
L 973 402 
C 1158 134 1427 -38 1766 -38 
C 2406 -38 3053 523 3053 1388 
C 3053 2191 2496 2802 1837 2802 
C 1453 2802 1139 2592 960 2338 
L 960 2802 
L 198 2732 
L 198 2567 
C 576 2567 634 2528 634 2223 
L 634 -789 
C 634 -1031 608 -1063 198 -1063 
L 198 -1228 
C 352 -1216 634 -1216 800 -1216 
C 966 -1216 1254 -1216 1408 -1228 
L 1408 -1063 
z
M 973 2012 
C 973 2102 973 2235 1222 2471 
C 1254 2497 1472 2688 1792 2688 
C 2259 2688 2643 2108 2643 1382 
C 2643 656 2234 64 1728 64 
C 1498 64 1248 172 1056 472 
C 973 612 973 650 973 752 
L 973 2012 
z
" transform="scale(0.015625)"/>
      </defs>
      <use xlink:href="#CMR17-4d" transform="scale(0.996264)"/>
      <use xlink:href="#CMR17-6f" transform="translate(84.686941 0) scale(0.996264)"/>
      <use xlink:href="#CMR17-6d" transform="translate(130.377418 0) scale(0.996264)"/>
      <use xlink:href="#CMR17-65" transform="translate(207.297008 0) scale(0.996264)"/>
      <use xlink:href="#CMR17-6e" transform="translate(247.782668 0) scale(0.996264)"/>
      <use xlink:href="#CMR17-74" transform="translate(296.075584 0) scale(0.996264)"/>
      <use xlink:href="#CMR17-2c" transform="translate(331.356352 0) scale(0.996264)"/>
      <use xlink:href="#CMR17-69" transform="translate(386.303376 0) scale(0.996264)"/>
      <use xlink:href="#CMR17-6e" transform="translate(411.174435 0) scale(0.996264)"/>
      <use xlink:href="#CMSY10-0" transform="translate(484.209012 0) scale(0.996264)"/>
      <use xlink:href="#CMR17-6b" transform="translate(583.835686 0) scale(0.996264)"/>
      <use xlink:href="#CMR17-69" transform="translate(632.128602 0) scale(0.996264)"/>
      <use xlink:href="#CMR17-70" transform="translate(656.999661 0) scale(0.996264)"/>
     </g>
    </g>
   </g>
   <g id="line2d_19">
    <path d="M 165.378365 81.957234 
L 165.874986 71.559595 
L 164.506502 98.051147 
L 163.873532 103.516714 
L 163.415633 106.718997 
L 164.176959 100.797674 
L 164.563526 96.719896 
L 164.941477 90.250279 
L 166.110741 67.302252 
L 166.744229 61.10241 
L 166.814082 60.529927 
L 166.343805 64.974435 
L 166.021445 68.945071 
L 165.321808 82.822103 
L 164.910137 91.58109 
L 164.313744 99.564629 
L 163.626816 105.588591 
L 162.279234 113.732648 
L 161.080634 120.10095 
L 159.612972 128.56598 
L 158.402718 134.587835 
L 158.252236 135.585773 
L 158.064528 135.924819 
L 158.015987 135.755616 
L 158.176844 134.486766 
L 158.838845 131.218279 
L 160.829177 119.342755 
L 162.487568 109.60235 
L 163.555812 102.208823 
L 164.717664 90.081509 
L 165.633558 73.363321 
L 166.789688 59.864387 
L 168.185096 50.485393 
L 170.94029 34.780218 
L 172.27776 27.403205 
L 175.169203 22.220978 
L 178.758159 18.274785 
L 182.474141 15.095643 
L 187.359146 13.815 
L 198.099568 14.385168 
L 202.938888 14.543302 
L 215.218432 14.586418 
L 224.300409 15.887537 
L 226.352794 16.074338 
L 228.62163 15.953643 
L 228.932567 16.054375 
L 228.574995 17.919518 
L 217.668491 67.476987 
L 213.818639 80.800929 
L 207.7455 87.585942 
L 201.06671 93.618335 
L 193.331621 98.342085 
L 183.946518 100.240691 
L 174.184547 102.590245 
L 166.208093 111.637067 
L 163.434247 130.018219 
L 157.623325 136.078297 
L 149.836034 137.698342 
L 142.113072 140.744375 
L 131.826222 142.60433 
L 120.937487 144.039231 
L 110.656402 146.012165 
L 100.799815 146.115 
L 85.511762 145.629446 
L 79.804254 144.392775 
L 74.980363 142.658687 
L 70.981437 141.679428 
L 67.764316 141.569526 
L 65.405654 142.400064 
L 64.139738 143.730252 
L 63.607034 144.878884 
L 63.751285 144.391949 
L 64.418415 141.250698 
L 66.847 128.541867 
L 68.379711 121.442288 
L 70.123721 114.463536 
L 72.519165 105.349931 
L 75.852376 91.82556 
L 81.052538 82.362473 
L 86.440138 74.976896 
L 91.872039 69.177987 
L 98.352781 65.164607 
L 106.890182 65.250641 
L 123.492912 69.292488 
L 129.376162 68.200317 
L 134.354565 66.179386 
L 138.443424 63.740997 
L 142.003645 62.044083 
L 145.584824 61.464576 
L 153.131523 62.144294 
L 156.649096 61.424951 
L 160.252701 60.062215 
L 163.35985 57.152627 
L 167.490144 45.289414 
L 170.280456 41.181888 
L 173.667911 40.116615 
L 176.913837 39.276051 
L 179.852644 37.405039 
L 182.476148 34.442428 
L 184.674168 31.375823 
L 186.652382 29.505592 
L 188.417868 29.28534 
L 189.800881 29.772761 
L 190.813554 29.985619 
L 191.505791 29.268101 
L 192.398207 26.26271 
L 192.803506 25.703843 
L 193.155592 26.345302 
L 193.380317 27.608492 
L 193.31307 28.519256 
L 193.220892 28.112765 
L 193.068239 28.035601 
L 192.80598 29.175003 
L 191.96654 34.69883 
L 191.39705 37.667803 
L 189.042701 46.513737 
L 185.204071 66.346305 
L 181.128167 83.499482 
L 178.455349 90.126101 
L 175.327124 94.064497 
L 172.190073 97.333498 
L 168.807157 99.893091 
L 166.053325 104.333455 
L 163.720172 114.130164 
L 162.362286 117.981453 
L 160.851908 119.899258 
L 159.442755 122.183506 
L 158.502846 123.431128 
L 158.061057 122.98585 
L 157.938501 121.469206 
L 158.029715 120.574517 
L 158.052889 120.879293 
L 158.092531 121.696586 
L 158.24744 121.618385 
L 159.497538 114.689954 
L 161.247601 109.0142 
L 164.273355 94.473953 
L 167.554756 77.337907 
L 170.284219 66.144079 
L 171.171764 61.815009 
L 171.156944 62.384975 
L 171.004464 63.13326 
L 170.300302 65.338031 
L 169.313571 70.058013 
L 167.898619 76.299931 
L 167.022841 80.188954 
L 165.026567 90.574567 
L 163.960775 96.301443 
L 160.497282 111.801426 
L 157.956404 121.538299 
L 154.510513 123.977119 
L 155.122816 121.095929 
L 162.371757 91.714049 
L 163.739988 85.962771 
L 166.412084 72.910556 
L 171.820447 49.896489 
L 174.348517 41.356939 
L 176.124268 38.609141 
L 178.163104 36.898807 
L 179.891353 35.605435 
L 183.363058 33.417997 
L 184.116166 32.784519 
L 184.088589 32.9131 
L 182.387132 40.857569 
L 176.867186 66.319791 
L 170.797116 91.995428 
L 168.070651 97.052813 
L 165.251897 101.35795 
L 161.905882 113.073313 
L 159.678348 119.501298 
L 157.779185 121.393995 
L 155.265661 123.207494 
L 152.953827 125.236648 
L 150.930588 126.658403 
L 149.140148 127.224852 
L 147.400108 127.26265 
L 145.671072 127.719475 
L 143.974053 128.925666 
L 140.90711 131.890469 
L 139.697534 132.490109 
L 138.755888 132.411777 
L 138.091294 132.11201 
L 137.719747 132.107913 
L 137.740161 132.544058 
L 137.98134 131.721913 
L 140.28949 120.738561 
L 142.037738 113.682291 
L 144.446534 102.518281 
L 145.982406 95.336028 
L 147.816872 87.498172 
L 149.791861 79.654409 
L 152.171434 73.14238 
L 155.323919 70.024756 
L 158.469791 67.53302 
L 161.60082 65.542721 
L 164.090301 62.46096 
L 165.425861 57.980652 
L 167.753656 48.719045 
L 167.564448 49.718309 
L 166.440826 56.114442 
L 164.725154 65.41708 
L 163.451766 72.977493 
L 161.712809 80.810083 
L 157.92627 95.867567 
L 153.592163 114.778335 
L 152.609517 118.526143 
L 151.175129 120.5687 
L 149.565355 122.113367 
L 148.314827 123.909484 
L 146.996962 125.923616 
L 146.996782 125.462401 
L 147.503257 122.67808 
L 149.133604 116.32505 
L 152.143121 102.413803 
L 157.785022 79.720697 
L 160.050211 70.195808 
L 163.020575 63.454586 
L 165.860932 56.050895 
L 168.124862 47.19972 
L 171.204663 41.168369 
L 179.894932 36.287159 
L 184.197825 33.578734 
L 191.783971 27.381803 
L 194.85573 25.278725 
L 197.233224 24.221597 
L 198.900647 23.810914 
L 199.856994 23.749188 
L 200.190546 23.576069 
L 200.160747 23.371459 
L 199.982276 23.620928 
L 199.650885 24.818322 
L 196.655505 39.959402 
L 192.269826 58.812747 
L 187.331009 82.844051 
L 183.026929 90.61284 
L 177.450218 95.377739 
L 170.980294 99.197805 
L 165.894134 108.191795 
L 162.883981 120.060359 
L 157.70634 123.572013 
L 151.30429 123.853094 
L 145.034841 126.323255 
L 138.959937 130.986575 
L 133.189259 136.191572 
L 127.935517 140.248694 
L 123.201634 141.84234 
L 118.803784 140.820873 
L 115.047345 138.850981 
L 112.231342 137.87623 
L 110.247484 138.45996 
L 109.087293 140.387716 
L 108.701351 142.758232 
L 109.632257 137.192657 
L 110.40998 132.812174 
L 111.312011 128.635487 
L 115.390651 113.218151 
L 117.793686 102.386695 
L 120.836841 87.991697 
L 125.033448 76.222572 
L 131.112123 70.440971 
L 138.426112 66.277782 
L 146.981028 64.380146 
L 155.620373 62.791807 
L 162.40546 58.278231 
L 166.482125 48.004657 
L 171.26634 40.624163 
L 177.091926 37.156757 
L 182.950264 34.248621 
L 188.711285 30.832649 
L 194.205172 26.713578 
L 199.463511 22.378504 
L 204.387712 18.687654 
L 209.955125 17.15651 
L 215.256235 16.900099 
L 220.260849 17.496516 
L 224.785977 17.891626 
L 228.832919 17.699223 
L 232.408392 16.985479 
L 239.766579 14.827301 
L 240.808282 14.827779 
L 241.152489 15.517675 
L 240.688669 18.35331 
L 238.482072 26.96019 
L 234.191172 47.25728 
L 230.54063 62.399851 
L 228.104464 73.186602 
L 224.666485 81.603161 
L 220.335845 87.222 
L 215.35576 91.652392 
L 209.482608 94.891404 
L 202.794329 96.27972 
L 196.013482 96.818657 
L 189.905098 98.770023 
L 184.284805 101.149124 
L 179.007504 103.585111 
L 173.43973 105.230469 
L 168.574332 107.469233 
L 165.25042 112.821004 
L 161.979568 120.514276 
L 158.194041 123.725113 
L 150.202168 123.0939 
L 146.145704 125.346326 
L 142.166641 129.520672 
L 138.2477 134.06985 
L 134.529752 136.971033 
L 130.990334 137.786903 
L 124.479617 137.626754 
L 120.980859 138.12427 
L 117.743 139.671042 
L 114.977667 141.464643 
L 112.691289 142.503491 
L 110.915208 142.27333 
L 109.683444 141.148995 
L 108.977031 139.894383 
L 108.850219 139.414865 
L 108.933442 139.394987 
L 109.129638 139.267942 
L 109.491109 138.243725 
L 110.049497 135.791327 
L 112.620372 122.911356 
L 118.284928 99.53202 
L 122.571182 79.357728 
L 126.443679 75.003233 
L 130.976045 72.023217 
L 146.042049 66.426035 
L 154.372852 60.869437 
L 158.81888 58.979138 
L 162.611657 56.670842 
L 165.144653 51.678683 
L 167.496781 45.845498 
L 169.558237 42.950418 
L 174.100184 42.737218 
L 176.437892 41.033406 
L 178.426426 38.272294 
L 179.796817 35.813982 
L 180.712233 35.556688 
L 181.302818 36.875302 
L 181.663533 38.01156 
L 181.851798 37.626445 
L 181.916008 35.641312 
L 181.650447 36.861617 
L 180.612989 43.700868 
L 179.984184 46.630878 
L 178.35488 51.864677 
L 177.183654 56.635239 
L 174.431132 69.881549 
L 172.723412 76.708988 
L 167.231772 96.808551 
L 165.284038 101.004169 
L 163.62067 105.639275 
L 162.079654 110.57095 
L 159.570569 119.072552 
L 158.303566 121.346343 
L 156.07727 121.789466 
L 154.081138 122.797133 
L 152.355648 124.201539 
L 151.054567 125.621757 
L 150.161621 126.263588 
L 149.576124 126.093073 
L 149.220193 125.485622 
L 149.274164 125.533628 
L 149.425064 125.32124 
L 149.731329 124.176895 
L 151.398894 115.966496 
L 155.362936 100.305423 
L 158.356611 87.52115 
L 161.694031 74.57951 
L 163.364993 68.425187 
L 165.448916 64.669544 
L 168.474066 56.113775 
L 171.624811 45.665025 
L 172.419866 43.080535 
L 173.543767 41.307773 
L 176.149863 39.769144 
L 177.413997 39.361658 
L 177.518713 39.429366 
L 175.311344 48.543466 
L 167.04091 82.719308 
L 162.890781 100.956402 
L 160.737188 109.819216 
L 157.778473 119.728178 
L 156.783172 122.203634 
L 153.299537 123.711406 
L 151.814919 124.470831 
L 149.60003 126.136314 
L 148.271541 126.684352 
L 148.026144 126.740462 
L 148.049419 126.658564 
L 148.856347 123.234017 
L 150.752107 114.690436 
L 156.952251 89.2021 
L 160.58504 74.532036 
L 162.666441 68.160362 
L 165.293869 64.245635 
L 168.707844 53.954973 
L 171.964085 43.521049 
L 173.25189 41.475375 
L 175.940267 39.729096 
L 176.68944 39.555972 
L 177.179857 39.721126 
L 176.980208 40.225014 
L 176.335336 42.915169 
L 175.24599 47.721413 
L 171.776288 61.819153 
L 169.153649 73.088776 
L 166.070318 85.762101 
L 164.654563 92.613868 
L 159.910072 112.323891 
L 157.28369 120.797667 
L 156.23222 122.271849 
L 151.915034 124.355087 
L 161.471254 85.294601 
L 164.51792 73.376249 
L 166.964034 62.802852 
L 169.899612 53.779582 
L 171.44766 48.680605 
L 171.072796 50.142764 
L 167.848715 63.869889 
L 166.764081 68.405962 
L 163.174874 85.186588 
L 159.704166 99.908469 
L 155.993427 115.014457 
L 161.256903 93.375761 
L 163.956753 81.97765 
L 167.911189 63.623688 
L 171.790693 47.472641 
L 173.306391 42.459977 
L 174.133315 40.875676 
L 177.234191 39.399491 
L 170.666408 66.629902 
L 165.575321 88.319516 
L 163.981073 95.825632 
L 159.953505 112.29599 
L 157.677786 119.720294 
L 156.298936 122.372236 
L 151.205943 124.898038 
L 148.827056 126.37648 
L 150.938366 116.993872 
L 154.8355 101.03369 
L 161.772689 72.819124 
L 164.966241 65.517021 
L 167.70429 57.695615 
L 171.796445 44.342623 
L 174.375182 41.017173 
L 178.092293 39.574157 
L 181.193821 36.978169 
L 183.967184 34.341308 
L 186.468052 32.3501 
L 188.632798 31.308981 
L 191.759704 30.486271 
L 192.701935 29.929786 
L 193.159489 29.264458 
L 193.1615 29.016591 
L 192.41098 32.516346 
L 190.694209 40.833908 
L 184.136604 69.62937 
L 181.735203 80.848805 
L 179.261422 91.291693 
L 175.386524 95.412779 
L 171.33137 98.554209 
L 167.53718 101.947696 
L 165.25506 108.205995 
L 163.014688 116.434471 
L 161.564328 117.966429 
L 159.386342 119.692254 
L 155.515205 123.990506 
L 154.449682 124.320366 
L 153.848465 123.330821 
L 153.528833 122.476438 
L 153.154171 122.794126 
L 152.640437 124.088158 
L 152.253867 125.397008 
L 152.07454 125.58213 
L 152.002386 124.402596 
L 152.215054 122.623129 
L 152.419663 123.140671 
L 152.710225 122.127556 
L 154.268373 114.196501 
L 155.526693 110.321362 
L 156.397619 106.928471 
L 158.56133 96.848198 
L 159.91253 91.345481 
L 163.240302 78.881079 
L 166.506548 64.636375 
L 172.723861 43.809078 
L 174.030102 40.711948 
L 176.228193 40.142168 
L 178.005722 39.538808 
L 179.154225 38.575823 
L 179.869785 37.342914 
L 178.734516 42.943011 
L 176.693993 51.197306 
L 174.536199 60.492406 
L 165.628499 96.610689 
L 163.76299 103.341846 
L 161.91491 108.910384 
L 159.073033 118.117806 
L 157.638014 121.539577 
L 155.061758 122.674881 
L 152.891106 123.896695 
L 150.075641 125.861424 
L 149.30377 126.142038 
L 148.853871 126.111428 
L 149.131455 125.172653 
L 149.846379 122.052111 
L 151.461007 114.799911 
L 153.746951 105.534032 
L 156.928632 92.397132 
L 162.050859 71.748532 
L 163.389085 67.574138 
L 165.146127 65.102579 
L 168.481449 55.694536 
L 169.967774 50.962448 
L 171.499987 45.710768 
L 171.465267 46.017648 
L 167.779411 61.828413 
L 166.888443 65.63046 
L 163.023236 84.500186 
L 160.938549 93.665934 
L 157.38495 108.426128 
L 154.684774 119.26286 
L 153.959282 121.468163 
L 151.121259 124.314392 
L 150.415639 124.770641 
L 150.429984 124.737037 
L 151.276807 121.132678 
L 152.540785 115.644696 
L 162.664328 74.491935 
L 164.771179 66.449333 
L 169.05335 53.646866 
L 172.225404 43.356206 
L 174.79203 40.760711 
L 177.72969 39.183578 
L 181.848268 35.980675 
L 185.72069 33.653335 
L 185.83303 33.353792 
L 185.757885 33.630704 
L 184.317819 40.447253 
L 182.155771 50.058892 
L 180.095755 59.598366 
L 171.552553 95.038754 
L 169.588642 97.122427 
L 167.666445 98.798575 
L 166.085138 101.03653 
L 162.597376 111.925877 
L 161.715665 115.049395 
L 161.819715 114.170762 
L 162.121218 113.448408 
L 162.773406 110.369922 
L 163.628383 106.343879 
L 164.49362 102.513005 
L 166.859941 90.42839 
L 169.394994 79.074025 
L 171.275855 71.274212 
L 173.561299 61.278215 
L 174.85117 56.179745 
L 175.174187 54.602035 
L 174.624006 56.913735 
L 172.098487 67.556651 
L 169.818552 77.28223 
L 170.931712 72.575452 
L 166.995116 89.76299 
L 165.232271 98.581707 
L 163.522141 106.957881 
L 161.875242 114.326765 
L 160.951957 117.500892 
L 159.802329 120.443771 
L 157.538182 121.821917 
L 152.679896 124.27609 
L 148.42165 126.807816 
L 143.041734 129.650904 
L 140.245633 131.246937 
L 140.108109 131.241205 
L 140.944334 127.491241 
L 152.073809 79.405362 
L 155.123901 70.91147 
L 163.998247 62.675331 
L 166.980836 53.561487 
L 169.238969 45.134879 
L 172.288606 41.519095 
L 176.670822 40.84301 
L 180.999994 38.508093 
L 185.10772 34.390483 
L 189.028073 30.095671 
L 192.702742 27.295198 
L 196.079489 26.258365 
L 199.065316 26.045295 
L 201.756646 25.399738 
L 204.140319 23.722596 
L 206.288143 21.311363 
L 208.345153 19.417474 
L 209.967165 18.624285 
L 211.123844 19.161744 
L 211.821079 20.555986 
L 212.04159 21.796135 
L 211.929395 22.393448 
L 211.716925 22.6709 
L 211.354905 23.392165 
L 210.763708 25.632094 
L 208.850446 35.528513 
L 207.630593 41.791486 
L 206.238657 48.056506 
L 202.29035 63.904976 
L 199.704708 75.572436 
L 196.25596 84.904437 
L 192.108044 90.865868 
L 187.27834 94.925791 
L 181.629191 97.582041 
L 175.83389 99.756146 
L 170.846834 103.462343 
L 167.223715 108.827258 
L 164.642435 114.366217 
L 161.74009 118.410861 
L 153.12203 123.931862 
L 149.375825 127.075897 
L 145.898459 129.149703 
L 142.670526 130.124429 
L 139.740269 130.807962 
L 137.120567 131.916582 
L 134.822654 133.600891 
L 131.274235 137.001514 
L 130.083668 137.624865 
L 129.314749 137.41809 
L 128.971795 136.862363 
L 129.169721 136.02996 
L 129.454763 135.273693 
L 129.907845 133.61671 
L 131.36509 126.653358 
L 133.421144 117.087806 
L 138.07367 97.628301 
L 142.347832 77.381312 
L 146.036466 72.74661 
L 150.408255 69.95311 
L 155.192329 68.089465 
L 159.787188 65.50768 
L 163.152508 60.189263 
L 165.059935 53.496822 
L 166.700207 48.506772 
L 169.189716 45.282373 
L 172.45985 42.447696 
L 178.715804 37.528339 
L 180.966785 36.313181 
L 184.410294 35.600447 
L 185.612841 34.577092 
L 186.431261 33.170096 
L 186.807234 32.180793 
L 186.792379 32.270124 
L 186.261105 35.793412 
L 185.815015 37.907772 
L 184.608505 42.382023 
L 183.751423 46.074136 
L 180.06904 63.840755 
L 176.002235 79.816053 
L 173.805148 88.876354 
L 171.257398 95.979896 
L 167.870579 99.771663 
L 164.997695 105.439915 
L 161.166603 118.613334 
L 158.823858 121.254019 
L 155.271189 121.777226 
L 151.777802 123.376089 
L 148.530497 126.426622 
L 145.50938 129.43208 
L 142.779705 131.199477 
L 140.403607 131.618541 
L 138.386955 131.480679 
L 136.725215 131.813239 
L 135.448027 132.896067 
L 134.601205 134.368689 
L 134.2247 135.432805 
L 134.266847 135.296715 
L 134.960337 130.989813 
L 135.520571 128.196691 
L 136.955717 122.899221 
L 137.900848 119.278942 
L 139.055524 114.044983 
L 141.910187 100.034017 
L 143.762009 91.9277 
L 145.82385 83.422344 
L 148.047602 75.389561 
L 151.392975 71.719908 
L 154.66811 68.403092 
L 162.035852 63.336547 
L 164.652313 57.956676 
L 167.321994 48.185228 
L 168.819193 45.887193 
L 171.147325 43.950822 
L 173.468061 41.345813 
L 175.549806 39.248693 
L 177.162429 38.483908 
L 178.277997 38.89445 
L 179.132788 39.393245 
L 179.827977 38.98204 
L 180.379074 37.601858 
L 180.969796 35.808306 
L 180.987569 36.724684 
L 180.680596 39.217057 
L 180.15185 40.35475 
L 179.700724 42.123311 
L 178.304262 49.450138 
L 177.432118 53.291325 
L 174.076567 65.99512 
L 169.791822 84.799681 
L 166.690316 95.977281 
L 164.007257 103.826087 
L 162.846316 106.950723 
L 158.944167 119.791017 
L 158.13471 121.055029 
L 156.901763 121.857352 
L 154.82694 123.337124 
L 154.01603 123.529668 
L 152.846923 123.597224 
L 152.493932 123.885243 
L 152.349862 124.226478 
L 152.399096 124.157753 
L 153.889848 117.603211 
L 156.589175 106.937558 
L 161.583482 86.34488 
L 163.678415 78.216382 
L 167.449625 61.992912 
L 170.722563 51.795928 
L 173.35489 42.917694 
L 175.126518 40.205779 
L 180.140946 37.905857 
L 181.228792 37.10593 
L 183.124797 35.025482 
L 183.277562 35.155214 
L 183.109819 36.239566 
L 182.300779 39.456753 
L 179.839528 51.019933 
L 172.187705 83.05421 
L 169.92534 92.08294 
L 166.865826 98.144989 
L 164.211207 105.023654 
L 160.251406 117.727441 
L 157.707508 121.41908 
L 153.745845 122.947349 
L 150.130487 125.307842 
L 146.815764 127.983959 
L 143.73582 130.035264 
L 140.996377 131.241877 
L 136.637371 132.489422 
L 135.056117 133.395503 
L 133.905559 134.503537 
L 132.901381 135.846375 
L 133.173642 134.088908 
L 133.925333 130.530628 
L 135.761231 123.212887 
L 138.745221 109.082028 
L 143.81334 87.42861 
L 145.792441 78.190624 
L 148.704562 72.501182 
L 152.306163 69.428902 
L 160.415958 65.421919 
L 163.476023 61.014129 
L 165.189038 55.201538 
L 166.342886 50.737771 
L 167.645916 47.367182 
L 169.953788 44.636673 
L 172.587971 41.745258 
L 175.057519 39.452804 
L 177.2557 38.583574 
L 178.984898 38.525804 
L 180.490371 38.359566 
L 181.852889 37.288396 
L 184.022836 33.794524 
L 184.690903 33.280532 
L 185.030233 33.965466 
L 185.044495 35.10433 
L 184.88682 36.025079 
L 184.277603 37.544665 
L 183.757321 39.61295 
L 181.185862 52.781597 
L 180.010272 57.649359 
L 178.505793 63.294768 
L 176.709098 70.478739 
L 173.04212 86.847869 
L 171.255615 94.213083 
L 165.915997 101.005231 
L 162.309017 112.222554 
L 161.481903 114.73144 
L 160.600619 117.804751 
L 159.609115 120.780356 
L 158.160645 122.086851 
L 156.923396 122.363811 
L 155.472915 121.960963 
L 155.151096 122.291216 
L 155.080563 122.863804 
L 155.156164 122.857489 
L 156.474284 116.777823 
L 157.351726 113.90021 
L 165.171193 80.67376 
L 167.347237 70.516551 
L 170.887057 55.995429 
L 172.348012 49.730342 
L 172.867334 47.680373 
L 172.875409 47.435868 
L 172.78894 47.756785 
L 172.084473 51.04125 
L 170.854919 55.911849 
L 168.762361 65.083958 
L 166.711007 73.283721 
L 163.530861 87.9467 
L 156.08785 118.600195 
L 154.993739 122.917424 
L 156.216257 117.73369 
L 163.911611 86.124172 
L 167.207363 70.885434 
L 173.196133 46.331346 
L 174.907157 40.630127 
L 177.798065 39.372093 
L 178.82163 38.670724 
L 180.458179 37.266501 
L 180.487037 37.364419 
L 179.871416 40.184878 
L 176.321164 55.425693 
L 167.558822 91.069509 
L 166.092254 96.675165 
L 164.663047 101.313476 
L 162.088795 108.668336 
L 158.705127 119.812204 
L 157.844132 121.550276 
L 154.084522 123.250121 
L 155.434038 117.67747 
L 163.588764 84.444987 
L 165.126736 77.80286 
L 166.550026 71.05843 
L 171.788357 50.026094 
L 173.801903 43.419209 
L 173.47078 44.755586 
L 166.681155 73.512823 
L 163.303541 89.448029 
L 159.524718 105.480483 
L 156.848015 116.337246 
L 162.564644 92.689519 
L 163.789286 87.461082 
L 168.444767 66.050138 
L 172.485169 48.935009 
L 166.47211 74.483907 
L 164.270432 85.299587 
L 158.139145 111.10241 
L 157.297131 114.534383 
L 159.668815 104.884692 
L 164.197935 85.628279 
L 166.928514 72.348427 
L 173.877741 43.099984 
L 174.535487 41.004595 
L 177.728526 39.286997 
L 178.504627 38.705222 
L 178.521134 38.821161 
L 178.018661 41.049815 
L 176.127561 48.950059 
L 162.58756 104.939885 
L 160.005418 113.610839 
L 157.909768 120.432549 
L 157.060041 121.938349 
L 153.44596 123.599519 
L 153.090356 123.775516 
L 154.63788 117.368967 
L 165.157957 74.440812 
L 166.529134 68.071636 
L 168.962622 58.652999 
L 171.710427 49.159814 
L 173.623924 42.888728 
L 173.331743 44.037633 
L 171.517971 51.708797 
L 166.506021 73.274087 
L 163.937447 85.951227 
L 160.30369 101.405037 
L 157.288464 113.854628 
L 155.724963 120.212987 
L 158.986004 106.944682 
L 163.555498 87.58233 
L 164.877258 81.442372 
L 166.128746 75.038811 
L 168.598241 64.153699 
L 173.388962 43.903493 
L 166.276815 74.343852 
L 164.905904 81.292454 
L 161.935002 94.692188 
L 155.501745 121.140221 
L 154.133487 122.73467 
L 152.751709 123.837253 
L 151.502247 124.514023 
L 149.815862 125.768269 
L 149.989677 124.860671 
L 153.146747 111.441083 
L 160.244065 82.436367 
L 162.1772 74.783582 
L 164.168804 67.498851 
L 166.430415 62.181949 
L 168.309229 56.963286 
L 172.189828 44.439349 
L 173.501964 41.421596 
L 175.525965 40.204202 
L 177.16513 39.366123 
L 179.431914 38.413984 
L 179.493056 38.222481 
L 179.184642 39.367384 
L 177.80428 45.724042 
L 174.399379 59.600705 
L 170.605937 75.415012 
L 167.77044 86.675967 
L 166.395521 92.117028 
L 164.126285 101.78017 
L 162.881771 105.211536 
L 158.948225 117.923602 
L 158.03425 120.945959 
L 157.563402 121.726839 
L 156.804666 121.9623 
L 156.813421 121.912202 
L 158.429744 115.356464 
L 161.902091 101.027396 
L 164.589749 89.218543 
L 166.010197 82.010022 
L 169.136588 68.190789 
L 175.268134 42.490745 
L 175.888176 40.642723 
L 176.761142 39.968537 
L 177.435277 39.649413 
L 177.726649 39.332985 
L 174.005513 54.689977 
L 169.125778 75.19141 
L 166.174567 87.17945 
L 164.875966 93.398596 
L 161.426673 107.668042 
L 160.453584 111.377047 
L 157.753075 120.067277 
L 156.727185 122.024115 
L 151.824818 124.324094 
L 158.877372 95.577537 
L 162.442402 80.904751 
L 164.421836 73.426305 
L 166.186331 65.580981 
L 168.031999 59.509441 
L 171.134953 49.905628 
L 173.752387 41.121806 
L 183.136654 35.709565 
L 184.923929 33.920883 
L 184.686452 35.384076 
L 183.970599 38.563294 
L 182.825878 43.48278 
L 178.891904 61.320239 
L 175.599592 74.722313 
L 171.884868 90.407441 
L 169.670954 96.545189 
L 166.602821 99.812771 
L 164.443907 105.605409 
L 161.24737 116.04354 
L 160.000139 119.744782 
L 157.178978 121.107222 
L 154.164553 122.815945 
L 151.424704 124.994187 
L 149.146689 127.120171 
L 147.112984 128.108947 
L 143.795668 128.443897 
L 142.54942 129.07547 
L 141.609432 130.150444 
L 140.78093 131.587493 
L 141.077232 129.539812 
L 141.846862 125.903439 
L 143.102682 121.203352 
L 145.024841 112.292671 
L 146.255564 106.395795 
L 147.75153 99.782893 
L 153.943651 74.636195 
L 156.829028 69.16452 
L 160.197751 65.971548 
L 163.833528 63.132111 
L 166.119263 56.888103 
L 168.714405 48.130479 
L 169.535084 45.932484 
L 171.196443 44.190248 
L 174.726088 39.630553 
L 175.836902 38.850802 
L 176.398216 39.650373 
L 176.657666 41.340603 
L 176.560007 40.279879 
L 176.280308 41.144609 
L 174.609305 49.83079 
L 172.368714 57.452447 
L 170.181558 67.998307 
L 168.856266 73.684683 
L 167.297818 79.329571 
L 165.759332 86.073326 
L 164.353087 93.041134 
L 161.613554 103.700643 
L 159.355273 113.892467 
L 158.239359 117.750806 
L 157.320155 120.505288 
L 156.08749 121.961434 
L 154.372164 122.519012 
L 152.89798 123.561924 
L 151.048621 125.521268 
L 150.73822 125.457934 
L 150.959489 123.664305 
L 151.640574 121.215622 
L 152.231355 119.080569 
L 156.65618 100.449573 
L 160.398989 85.736279 
L 162.414504 77.336217 
L 164.454163 69.492788 
L 166.403059 62.921222 
L 168.317552 57.655539 
L 172.778584 43.244264 
L 173.772903 41.251569 
L 174.995921 40.425861 
L 175.818569 40.02301 
L 176.223279 40.049401 
L 176.272022 40.271252 
L 175.574117 42.885757 
L 170.610694 63.539656 
L 166.259494 82.027613 
L 164.838152 88.97936 
L 162.039145 101.047329 
L 157.890398 117.982092 
L 156.931318 121.108743 
L 155.360731 122.697492 
L 152.019951 124.207613 
L 149.239344 126.191519 
L 148.825311 126.194995 
L 149.450868 123.546665 
L 153.150863 107.727347 
L 157.761649 88.944914 
L 161.689748 72.97055 
L 166.532432 61.232041 
L 168.446426 55.656801 
L 172.457519 42.828192 
L 174.826566 40.884842 
L 177.227032 39.298277 
L 179.116947 37.851181 
L 180.625907 36.957568 
L 182.749915 36.145582 
L 183.382946 35.558257 
L 183.68765 34.714006 
L 183.534893 35.483085 
L 182.82762 39.242714 
L 177.971998 60.700049 
L 170.344823 92.142114 
L 168.698833 96.939347 
L 166.495898 99.399162 
L 164.914184 103.272827 
L 160.842586 115.841961 
L 159.96861 119.031168 
L 160.218069 117.476801 
L 161.884231 110.997226 
L 169.540727 74.681399 
L 171.733561 65.57874 
L 172.2916 63.269603 
L 170.995817 68.865351 
L 169.884168 73.36889 
L 167.838521 82.510582 
L 166.346294 89.313011 
L 163.523026 103.397234 
L 162.334801 108.868569 
L 165.720139 92.536855 
L 166.999726 86.190676 
L 172.92598 60.473564 
L 166.214597 89.954438 
L 163.920788 101.609941 
L 161.193026 113.653345 
L 160.286955 117.51553 
L 163.723748 102.511243 
L 164.644504 98.17562 
L 166.824418 87.006735 
L 173.034532 60.0662 
L 177.139394 43.009049 
L 177.601802 41.915889 
L 178.185129 41.138146 
L 177.268858 45.33491 
L 173.090678 62.629942 
L 167.097917 88.083134 
L 162.380977 110.274517 
L 161.483954 113.906309 
L 159.868635 119.223625 
L 159.031668 120.905282 
L 156.604891 122.051809 
L 164.400597 89.454592 
L 167.036263 76.621074 
L 175.462028 41.22706 
L 167.160272 76.095484 
L 161.920056 100.191961 
L 157.329288 119.165818 
L 156.697929 121.656865 
L 154.258479 123.110775 
L 153.04743 123.854776 
L 153.030143 123.802254 
L 153.817726 120.478746 
L 157.432448 105.792813 
L 163.967498 79.283017 
L 167.807345 62.842553 
L 169.873031 55.28889 
L 174.125288 41.210997 
L 176.824653 39.671829 
L 176.829856 39.795842 
L 176.01164 43.220909 
L 170.991361 64.006928 
L 165.408755 87.917232 
L 163.645858 96.046663 
L 158.537093 116.497825 
L 156.899585 121.858449 
L 154.470081 123.107806 
L 154.50121 123.057257 
L 160.452921 98.756664 
L 165.152927 78.909494 
L 166.151512 74.029978 
L 167.969715 66.473492 
L 169.231483 61.416878 
L 170.131498 57.575714 
L 168.133717 65.867711 
L 165.959903 74.896824 
L 164.51794 81.78176 
L 161.854407 92.793554 
L 160.327074 99.199498 
L 165.032059 79.50266 
L 166.665871 71.802949 
L 169.514701 60.1978 
L 165.860893 75.341565 
L 163.948166 84.3 
L 158.207533 107.925604 
L 155.94172 117.069573 
L 163.217368 87.291666 
L 164.828974 80.425383 
L 166.364811 73.04637 
L 171.904834 50.084748 
L 173.617478 44.473839 
L 173.272511 45.840201 
L 170.759459 56.426923 
L 166.759582 73.207773 
L 163.314954 89.435927 
L 159.949469 103.533382 
L 155.387583 122.179516 
L 153.561153 123.458078 
L 151.857704 124.149205 
L 149.898994 125.62967 
L 149.577304 125.94237 
L 150.340906 122.277238 
L 151.736686 116.432826 
L 155.20734 102.264431 
L 160.154261 81.990786 
L 163.422214 69.412788 
L 165.183558 65.439811 
L 167.859843 58.079714 
L 169.718825 52.311876 
L 172.602673 42.770276 
L 172.382248 43.718717 
L 169.993189 53.889065 
L 167.692838 63.976501 
L 166.193754 70.832413 
L 164.600286 79.194884 
L 162.835419 87.494875 
L 159.414247 101.910472 
L 154.78413 121.045111 
L 151.474062 123.698761 
L 149.011435 126.27656 
L 148.901299 126.31858 
L 149.790784 122.163624 
L 153.668689 105.987909 
L 162.080562 71.944529 
L 165.129523 65.2351 
L 167.662181 57.995894 
L 171.463936 45.847156 
L 173.415424 41.741965 
L 176.964018 40.136578 
L 180.069563 37.705401 
L 182.71747 35.209346 
L 185.127196 33.450288 
L 187.231944 32.514087 
L 188.996804 31.987562 
L 190.386937 31.40323 
L 191.436356 30.574695 
L 192.367048 29.243254 
L 192.309076 29.528352 
L 191.73777 32.640814 
L 190.641041 37.465794 
L 189.004359 44.548375 
L 183.365072 70.378479 
L 181.333515 79.236546 
L 179.189986 88.036191 
L 176.365591 93.727939 
L 172.98282 97.0861 
L 169.412325 99.894563 
L 166.354478 104.181377 
L 162.341044 117.906943 
L 160.015611 119.168345 
L 157.260662 121.137455 
L 154.683854 123.587388 
L 152.43613 125.372214 
L 150.705353 126.034478 
L 149.222192 125.767369 
L 147.87478 125.716236 
L 146.679634 126.60138 
L 144.622368 129.763781 
L 144.53841 128.921471 
L 144.873517 126.51373 
L 145.995179 123.015093 
L 149.352001 106.99728 
L 152.212039 96.086757 
L 157.604318 72.806339 
L 160.150206 67.971866 
L 163.531196 65.537951 
L 165.799569 60.298333 
L 168.619665 51.39789 
L 169.658095 48.353294 
L 170.670222 44.978409 
L 172.276801 42.245974 
L 174.005136 40.362525 
L 175.38823 39.61486 
L 176.323519 39.87056 
L 176.899382 40.385909 
L 177.221272 40.373274 
L 177.27883 39.478083 
L 177.058127 40.234133 
L 175.570103 47.503381 
L 173.299718 55.817256 
L 169.821633 71.31214 
L 166.774266 83.186312 
L 164.152682 95.422493 
L 161.860776 104.605382 
L 160.172235 112.132995 
L 157.966202 118.937321 
L 157.463184 120.864216 
L 157.457507 120.732933 
L 157.782009 119.014905 
L 158.959037 114.752245 
L 163.621713 94.941375 
L 167.95083 74.745593 
L 173.856633 49.676737 
L 175.791036 41.606403 
L 176.443832 40.326745 
L 177.481785 39.494856 
L 177.638598 39.454846 
L 177.171462 41.269352 
L 169.023362 75.262861 
L 166.409256 85.817843 
L 164.221628 95.911189 
L 159.90193 112.868948 
L 158.555542 117.255216 
L 158.924758 115.86238 
L 164.102927 94.198268 
L 167.624801 77.832588 
L 174.343211 49.672528 
L 166.159447 84.20941 
L 164.305173 93.258888 
L 158.526631 117.325139 
L 164.430797 92.681621 
L 166.69895 81.750899 
L 175.252426 45.824688 
L 166.114325 84.398832 
L 164.786458 91.041359 
L 162.233678 102.124021 
L 158.589938 117.242411 
L 157.200363 121.682369 
L 154.416625 123.126257 
L 154.098715 123.330462 
L 154.105656 123.277748 
L 154.806635 120.307076 
L 160.540927 97.07122 
L 165.117231 77.901591 
L 166.61948 70.795349 
L 171.640759 50.544082 
L 174.509235 40.972061 
L 176.005217 40.079563 
L 178.290904 39.137631 
L 179.088668 38.366626 
L 179.060231 38.438897 
L 177.732009 44.403682 
L 174.351362 58.349542 
L 168.371327 82.962853 
L 166.652166 89.676606 
L 163.777629 102.070755 
L 161.140321 110.403913 
L 158.24002 119.953565 
L 157.250794 121.843577 
L 154.653999 122.889683 
L 152.954152 123.915013 
L 152.969488 123.808896 
L 153.660727 120.888668 
L 157.868846 103.790493 
L 164.816402 75.510413 
L 166.176839 69.164083 
L 168.610438 59.596461 
L 172.15387 47.474429 
L 173.706191 42.469545 
L 173.498672 43.207117 
L 171.067501 53.478374 
L 166.939276 71.23412 
L 162.980393 90.110988 
L 157.742375 112.168267 
L 155.29047 121.743805 
L 154.711448 122.260465 
L 154.886906 121.423739 
L 159.653732 102.166774 
L 163.407066 86.237366 
L 164.776814 80.189043 
L 166.034876 73.826757 
L 168.494324 63.284167 
L 173.075031 44.567194 
L 173.468465 43.198308 
L 173.143242 44.606465 
L 166.263676 74.103305 
L 163.741414 86.505052 
L 160.094277 102.046355 
L 156.457314 116.889048 
L 155.370312 121.338087 
L 161.990142 94.082973 
L 164.589929 82.580951 
L 167.066863 70.388419 
L 173.365785 43.670019 
L 166.742005 71.860714 
L 162.990112 89.71104 
L 159.62826 103.993175 
L 155.613604 120.344119 
L 163.051269 89.414722 
L 164.346542 83.728952 
L 166.770763 71.731517 
L 173.253026 44.139 
L 167.042728 70.506329 
L 162.136746 93.498016 
L 156.30058 117.521728 
L 155.797535 119.588992 
L 161.658044 95.484074 
L 164.113249 84.815601 
L 166.486644 73.061325 
L 172.545497 47.097816 
L 173.073316 44.873562 
L 167.150078 70.022469 
L 161.2285 97.318003 
L 155.973704 118.879584 
L 162.771198 90.711152 
L 164.004349 85.305779 
L 167.491414 68.625747 
L 172.89934 45.590155 
L 165.983556 75.481666 
L 163.672094 86.795047 
L 160.341809 100.989237 
L 156.143523 118.194037 
L 164.013256 85.260566 
L 167.419825 68.917196 
L 172.732156 46.28299 
L 167.027419 70.587906 
L 162.463588 92.11888 
L 156.306171 117.542032 
L 164.130615 84.727146 
L 167.448321 68.802932 
L 172.566164 46.975285 
L 166.810892 71.571061 
L 162.351283 92.583015 
L 156.46291 116.911634 
L 163.187161 88.779388 
L 164.343721 83.731641 
L 166.493534 73.034938 
L 171.641462 50.922691 
L 172.400427 47.670546 
L 166.506449 72.981248 
L 164.381454 83.559231 
L 159.451301 104.723327 
L 156.621177 116.265509 
L 162.433902 92.20857 
L 164.645312 82.307837 
L 166.735977 71.898905 
L 172.233358 48.372642 
L 166.117676 74.79696 
L 164.034808 85.168114 
L 159.326652 105.259914 
L 156.7839 115.608701 
L 162.862494 90.273104 
L 165.019125 80.405278 
L 167.058501 70.449908 
L 170.262193 56.775977 
L 172.07255 49.066536 
L 166.685606 72.13814 
L 163.599375 87.087162 
L 160.63024 99.764906 
L 156.921156 115.063049 
L 163.379437 87.974588 
L 164.450086 83.235334 
L 166.447184 73.263614 
L 170.397141 56.211769 
L 171.916872 49.744305 
L 167.132457 70.120863 
L 165.156904 79.701886 
L 164.148799 84.647423 
L 158.958788 106.780037 
L 157.076075 114.441785 
L 161.940452 94.258487 
L 164.990937 80.549185 
L 166.932592 71.034475 
L 171.763505 50.389867 
L 166.494844 73.03686 
L 163.546992 87.296716 
L 160.719716 99.382814 
L 157.219011 113.853372 
L 163.615292 87.02502 
L 165.572488 77.58025 
L 167.466155 68.776204 
L 171.602681 51.063488 
L 166.755117 71.817763 
L 162.893269 90.171339 
L 159.034703 106.478277 
L 157.371307 113.221737 
L 162.373296 92.4226 
L 165.285314 79.046332 
L 167.133096 70.145042 
L 170.452006 56.032892 
L 171.468355 51.671879 
L 165.994996 75.423267 
L 164.149512 84.634432 
L 158.765423 107.60879 
L 157.525985 112.624107 
L 160.581015 99.967168 
L 164.156943 84.625416 
L 166.890119 71.239004 
L 171.327715 52.256615 
L 166.09606 74.907313 
L 164.3039 83.909757 
L 160.065515 102.102068 
L 157.665399 112.04638 
L 164.971806 80.646852 
L 166.729083 71.968502 
L 171.188642 52.839521 
L 166.119572 74.791745 
L 164.37324 83.581258 
L 160.877746 98.693307 
L 157.804274 111.476213 
L 164.03593 85.168264 
L 167.492625 68.666459 
L 171.053109 53.416215 
L 166.071599 75.032191 
L 164.365604 83.620082 
L 160.951458 98.384017 
L 157.942181 110.912456 
L 164.090429 84.918599 
L 167.459656 68.801447 
L 170.920929 53.983166 
L 166.79635 71.645851 
L 161.714668 95.215486 
L 158.080188 110.342771 
L 163.318897 88.224289 
L 165.060134 80.195918 
L 166.687348 72.153624 
L 170.783292 54.571761 
L 165.789784 76.470912 
L 164.146991 84.651222 
L 158.206058 109.818978 
L 164.394613 83.493258 
L 166.799756 71.645709 
L 170.097718 57.535674 
L 170.097718 57.535674 
" clip-path="url(#pb5b08607af)" style="fill: none; stroke: #003262; stroke-width: 0.8; stroke-linecap: square"/>
   </g>
   <g id="patch_3">
    <path d="M 54.729761 152.73 
L 54.729761 7.2 
" style="fill: none; stroke: #bcbcbc; stroke-width: 0.8; stroke-linejoin: miter; stroke-linecap: square"/>
   </g>
   <g id="patch_4">
    <path d="M 250.029761 152.73 
L 250.029761 7.2 
" style="fill: none; stroke: #bcbcbc; stroke-width: 0.8; stroke-linejoin: miter; stroke-linecap: square"/>
   </g>
   <g id="patch_5">
    <path d="M 54.729761 152.73 
L 250.029761 152.73 
" style="fill: none; stroke: #bcbcbc; stroke-width: 0.8; stroke-linejoin: miter; stroke-linecap: square"/>
   </g>
   <g id="patch_6">
    <path d="M 54.729761 7.2 
L 250.029761 7.2 
" style="fill: none; stroke: #bcbcbc; stroke-width: 0.8; stroke-linejoin: miter; stroke-linecap: square"/>
   </g>
  </g>
 </g>
 <defs>
  <clipPath id="pb5b08607af">
   <rect x="54.729761" y="7.2" width="195.3" height="145.53"/>
  </clipPath>
 </defs>
</svg>
